<?xml version="1.0" standalone="no"?>
<!DOCTYPE svg PUBLIC "-//W3C//DTD SVG 20010904//EN"
 "http://www.w3.org/TR/2001/REC-SVG-20010904/DTD/svg10.dtd">
<svg version="1.0" xmlns="http://www.w3.org/2000/svg"
 width="1821.000000pt" height="1206.000000pt" viewBox="0 0 1821.000000 1206.000000"
 preserveAspectRatio="xMidYMid meet">
<metadata>
Created by potrace 1.16, written by Peter Selinger 2001-2019
</metadata>
<g transform="translate(0.000000,1206.000000) scale(0.100000,-0.100000)"
fill="#000000" stroke="none">
<path d="M4210 11983 c-103 -17 -248 -124 -335 -249 -41 -59 -85 -212 -85
-296 l0 -38 -620 0 c-682 0 -673 1 -753 -62 -64 -51 -115 -160 -117 -249 0
-69 45 -174 92 -214 69 -59 -75 -55 2132 -55 1526 0 2047 -3 2086 -12 105 -24
170 -112 178 -238 6 -111 -20 -178 -97 -251 -32 -31 -71 -60 -87 -65 -16 -4
-1185 -10 -2599 -14 l-2570 -5 -53 -29 c-59 -32 -107 -83 -143 -153 -20 -39
-24 -61 -24 -137 0 -75 4 -98 22 -133 29 -53 101 -114 156 -130 33 -10 492
-13 2240 -13 2186 0 2197 0 2240 -20 215 -101 188 -426 -44 -533 -34 -16 -174
-17 -1920 -17 -1369 0 -1893 -3 -1919 -11 -58 -19 -80 -32 -126 -72 -90 -79
-125 -181 -104 -299 10 -60 18 -75 60 -121 88 -96 -185 -87 2568 -87 1909 0
2431 -3 2463 -12 47 -15 120 -89 146 -147 10 -22 16 -66 17 -111 0 -100 -32
-169 -109 -237 -106 -92 227 -83 -3050 -83 -2275 0 -2908 -3 -2935 -13 -84
-29 -134 -74 -176 -157 -24 -47 -28 -67 -28 -140 0 -61 5 -94 17 -115 9 -16
17 -35 17 -41 0 -20 87 -92 126 -106 32 -10 431 -13 2136 -16 1752 -2 2100 -4
2122 -16 44 -22 115 -95 132 -134 21 -47 23 -154 4 -212 -22 -69 -94 -148
-165 -182 l-60 -28 -812 0 -812 0 -10 -52 c-6 -29 -16 -120 -22 -203 -5 -82
-14 -204 -20 -270 -20 -271 -39 -511 -54 -695 -21 -263 -56 -713 -72 -926 -10
-146 34 -272 132 -369 65 -65 123 -99 198 -115 44 -9 1235 -16 1244 -6 2 2 10
48 17 102 19 131 40 232 70 329 36 119 46 145 72 203 13 29 24 55 24 59 0 4 6
14 13 22 8 9 37 60 65 114 53 100 143 240 163 252 6 4 14 16 17 26 21 55 349
371 428 412 17 9 54 34 82 56 28 23 55 41 59 41 5 0 25 11 45 25 20 14 44 25
52 25 9 0 16 5 16 10 0 6 7 10 15 10 8 0 31 7 52 16 65 28 76 32 138 50 33 9
68 20 77 25 10 5 27 9 38 9 11 0 28 4 38 9 9 6 46 15 82 22 36 6 88 15 115 20
207 38 423 14 710 -77 96 -30 318 -138 369 -180 131 -106 249 -209 270 -236
14 -18 59 -76 101 -129 69 -89 205 -332 205 -366 0 -18 38 -130 55 -163 14
-27 24 -71 55 -240 15 -78 20 -150 20 -278 l0 -172 2768 2 2767 3 7 60 c6 54
24 157 47 270 4 22 17 65 28 95 11 30 30 82 43 115 18 51 57 134 137 300 23
48 39 73 58 95 10 11 23 29 29 39 6 11 26 40 44 66 17 25 32 49 32 53 0 12
254 279 296 311 21 16 50 39 64 49 291 223 540 325 951 391 127 21 290 9 469
-34 36 -9 76 -18 90 -21 14 -3 34 -9 45 -13 11 -4 45 -16 75 -26 30 -9 88 -33
128 -51 41 -19 75 -34 78 -34 8 0 113 -70 118 -79 4 -5 36 -30 74 -54 112 -75
264 -235 357 -377 17 -25 34 -48 40 -52 5 -4 6 -8 2 -8 -4 0 4 -21 19 -47 78
-139 114 -219 146 -323 65 -214 78 -295 85 -552 l5 -178 133 0 c149 0 217 11
287 46 61 30 68 35 150 117 130 130 158 227 188 667 11 160 27 360 41 520 5
63 14 180 19 260 10 144 33 436 50 620 41 455 55 916 32 1040 -17 92 -48 197
-78 267 -8 17 -14 36 -14 42 0 43 -181 291 -312 426 -26 28 -56 61 -65 75 -22
32 -116 144 -159 190 -34 37 -212 247 -279 330 -22 28 -77 92 -123 142 -95
107 -279 321 -367 429 -33 40 -81 96 -106 123 -25 28 -81 94 -124 146 -170
204 -235 261 -390 343 -132 70 -170 87 -230 103 -175 45 -149 44 -1151 44
l-952 0 4 43 c4 40 11 135 34 442 11 141 30 366 55 620 36 372 37 479 10 562
-35 104 -156 237 -253 278 -47 20 -71 20 -4747 21 -2585 1 -4711 -1 -4725 -3z
m11518 -2478 c23 -4 45 -11 48 -16 3 -5 15 -9 28 -9 46 0 226 -110 282 -174
81 -90 160 -181 219 -251 33 -40 92 -109 130 -153 39 -43 97 -112 130 -152 33
-39 102 -120 154 -178 51 -59 105 -123 119 -142 14 -19 51 -62 82 -95 31 -33
73 -82 95 -110 22 -27 62 -75 90 -105 28 -30 90 -104 137 -165 48 -60 96 -116
107 -123 62 -37 76 -37 -1606 -34 -894 1 -1628 4 -1630 6 -4 3 8 117 28 267
10 79 29 299 35 409 2 36 9 126 14 200 6 74 15 189 19 255 35 463 42 552 47
568 5 16 44 17 717 14 392 -3 731 -8 755 -12z"/>
<path d="M6507 5564 c-4 -5 -31 -11 -60 -15 -91 -13 -172 -31 -181 -40 -6 -5
-18 -9 -28 -9 -10 0 -26 -4 -36 -9 -35 -18 -93 -41 -102 -41 -5 0 -40 -19 -77
-43 -37 -23 -81 -49 -98 -57 -46 -23 -194 -136 -258 -199 -151 -146 -302 -359
-364 -516 -6 -17 -23 -59 -38 -95 -77 -191 -105 -341 -105 -579 0 -222 26
-357 103 -543 74 -179 130 -268 255 -404 139 -152 258 -237 419 -299 37 -15
91 -36 118 -47 52 -22 89 -31 215 -49 87 -13 348 -5 413 11 94 25 122 34 132
41 6 4 26 10 45 14 19 4 41 11 50 16 8 4 40 18 70 31 85 35 176 85 254 138 79
54 294 250 331 302 65 92 135 198 159 243 15 28 40 73 56 102 27 48 62 139 80
208 5 17 17 62 28 100 32 113 47 250 46 405 -3 312 -79 573 -233 790 -86 122
-152 198 -224 257 -74 60 -179 133 -193 133 -4 0 -17 8 -28 19 -40 35 -180 85
-346 123 -56 13 -392 22 -403 12z m307 -778 c103 -39 149 -69 228 -152 101
-105 133 -165 172 -320 30 -118 15 -306 -36 -450 -54 -152 -216 -335 -368
-416 -131 -69 -175 -81 -314 -81 -147 0 -202 14 -312 80 -113 69 -184 146
-243 268 -70 141 -76 170 -75 320 1 147 13 202 68 315 71 145 129 227 193 275
21 16 54 43 74 60 39 35 150 92 207 107 88 23 123 27 227 23 88 -3 124 -9 179
-29z"/>
<path d="M15465 5560 c-11 -5 -33 -9 -49 -9 -16 -1 -43 -5 -60 -11 -17 -5 -58
-17 -91 -26 -121 -35 -303 -126 -400 -200 -18 -13 -37 -24 -43 -24 -12 0 -244
-219 -285 -270 -35 -42 -217 -316 -217 -325 0 -4 -7 -23 -16 -43 -51 -117 -63
-149 -89 -246 -38 -143 -50 -247 -50 -436 0 -167 12 -288 36 -375 49 -172 116
-331 163 -385 12 -14 30 -43 41 -65 29 -58 268 -296 338 -336 131 -76 188
-102 307 -141 127 -42 170 -49 320 -55 190 -7 336 13 480 66 99 36 97 35 215
92 116 57 197 109 266 173 31 28 81 72 112 99 31 26 84 86 118 135 35 48 78
104 96 124 83 95 238 492 265 678 17 121 17 358 0 475 -7 50 -24 124 -38 165
-14 41 -30 91 -36 110 -15 50 -101 229 -130 272 -42 61 -140 178 -198 235 -45
45 -280 213 -297 213 -3 0 -21 7 -41 16 -21 9 -46 20 -57 25 -35 15 -109 36
-165 48 -30 7 -74 16 -98 22 -52 11 -370 11 -397 -1z m348 -774 c94 -35 162
-80 228 -151 49 -53 119 -154 119 -172 0 -4 9 -25 19 -47 51 -108 66 -298 35
-432 -18 -80 -74 -203 -137 -301 -85 -132 -266 -257 -430 -297 -129 -31 -325
-18 -412 29 -57 30 -156 105 -203 154 -62 64 -125 186 -143 276 -39 198 -14
393 70 560 50 101 66 121 168 218 109 103 225 164 363 191 14 2 77 3 140 1 92
-3 129 -9 183 -29z"/>
</g>
</svg>
